 <svg fill="#6356BA"  xmlns="http://www.w3.org/2000/svg"  viewBox="0 0 24 24" >
                  <path
                    fill-rule="evenodd"
                    d="M7.5 1.5a.75.75 0 0 1 .75.75V3h7.5v-.75a.75.75 0 0 1 1.5 0V3h2.25A1.5 1.5 0 0 1 21 4.5v15a1.5 1.5 0 0 1-1.5 1.5h-15A1.5 1.5 0 0 1 3 19.5v-15A1.5 1.5 0 0 1 4.5 3h2.25v-.75a.75.75 0 0 1 .75-.75Zm-.75 3H4.5v3h15v-3h-2.25v.75a.75.75 0 0 1-1.5 0V4.5h-7.5v.75a.75.75 0 0 1-1.5 0V4.5ZM19.5 9h-15v10.5h15V9ZM9.22 11.47a.75.75 0 0 1 1.06 0L12 13.19l1.72-1.72a.75.75 0 1 1 1.06 1.06l-1.72 1.72 1.72 1.72a.75.75 0 1 1-1.06 1.06L12 15.31l-1.72 1.72a.75.75 0 1 1-1.06-1.06l1.72-1.72-1.72-1.72a.75.75 0 0 1 0-1.06Z"
                    clip-rule="evenodd"
                  ></path>
                </svg>