<svg width="82" height="53" viewBox="0 0 82 53" fill="none" xmlns="http://www.w3.org/2000/svg">
<g id="Group 82">
<path id="Vector" d="M72.8925 0H9.10752C9.10752 5.13912 5.02206 9.28994 0 9.28994V42.8919C5.0382 42.8919 9.10752 47.0592 9.10752 52.1818H72.8925C72.8925 47.0427 76.9779 42.8919 82 42.8919V9.28994C76.9779 9.28994 72.8925 5.13912 72.8925 0Z" fill="#FFD15C"/>
<g id="Group">
<path id="Vector_2" d="M18.0003 45.5878H13.7413L13.4792 45.08C12.9551 44.048 12.3162 43.0488 11.5791 42.1479L13.0042 40.9849C13.7086 41.853 14.331 42.7703 14.8552 43.7532H17.9839V45.5878H18.0003Z" fill="#042B26"/>
<path id="Vector_3" d="M11.1699 41.6567C11.0225 41.4929 10.8914 41.3455 10.7276 41.1817L12.0545 39.904C12.2183 40.0842 12.3821 40.248 12.5459 40.4282L11.1699 41.6567ZM10.269 40.723C10.1216 40.5756 9.95775 40.4282 9.79395 40.2808L11.0225 38.9048C11.2027 39.0686 11.3829 39.2324 11.5467 39.3962L10.269 40.723Z" fill="#042B26"/>
<path id="Vector_4" d="M9.31882 39.8709C8.41789 39.1338 7.41868 38.4949 6.3867 37.9708L5.87891 37.7087V33.4333H7.72991V36.5948C8.71274 37.119 9.63005 37.7414 10.4982 38.4458L9.31882 39.8709Z" fill="#042B26"/>
<path id="Vector_5" d="M7.72991 30.5178H5.87891V27.5857H7.72991V30.5178ZM7.72991 24.6372H5.87891V21.7051H7.72991V24.6372Z" fill="#042B26"/>
<path id="Vector_6" d="M7.72991 18.7567H5.87891V14.4813L6.3867 14.2192C7.43506 13.6951 8.41789 13.0562 9.31882 12.3191L10.4818 13.7606C9.61367 14.4649 8.69636 15.0874 7.71353 15.6116V18.7567H7.72991Z" fill="#042B26"/>
<path id="Vector_7" d="M11.0381 13.3186L9.80957 11.9426C9.97338 11.7952 10.1208 11.6478 10.2846 11.5003L11.5623 12.8272C11.3821 12.991 11.2183 13.1548 11.0381 13.3186ZM12.0701 12.3194L10.7269 11.0417C10.8743 10.8943 11.0217 10.7305 11.1692 10.5667L12.5615 11.7952C12.3977 11.959 12.2339 12.1392 12.0701 12.3194Z" fill="#042B26"/>
<path id="Vector_8" d="M13.0218 11.2543L11.5967 10.0913C12.3338 9.19035 12.9726 8.19114 13.4968 7.15916L13.7589 6.65137H18.0342V8.50237H14.8728C14.3486 9.45244 13.7262 10.3861 13.0218 11.2543Z" fill="#042B26"/>
<path id="Vector_9" d="M34.7255 8.48601H30.5484V6.63501H34.7255V8.48601ZM26.3714 8.48601H22.1943V6.63501H26.3714V8.48601Z" fill="#042B26"/>
<path id="Vector_10" d="M59.8196 8.48601H55.6425V6.63501H59.8196V8.48601ZM51.4491 8.48601H47.2721V6.63501H51.4491V8.48601ZM43.095 8.48601H38.918V6.63501H43.095V8.48601Z" fill="#042B26"/>
<path id="Vector_11" d="M68.9768 11.2543C68.2724 10.3862 67.6499 9.46885 67.1258 8.48601H63.9971V6.63501H68.2724L68.5345 7.14281C69.0587 8.17478 69.6811 9.174 70.4346 10.0749L68.9768 11.2543Z" fill="#042B26"/>
<path id="Vector_12" d="M70.9763 13.3186C70.7961 13.1548 70.6159 12.991 70.4521 12.8272L71.7298 11.5003C71.8772 11.6478 72.041 11.7952 72.2048 11.9426L70.9763 13.3186ZM69.9279 12.3194C69.7641 12.1392 69.6003 11.9754 69.4365 11.7952L70.8125 10.5667C70.9599 10.7305 71.1073 10.8779 71.2548 11.0417L69.9279 12.3194Z" fill="#042B26"/>
<path id="Vector_13" d="M76.1193 18.7566H74.2683V15.6279C73.3019 15.1038 72.3682 14.4813 71.5 13.7769L72.663 12.3354C73.564 13.0726 74.5632 13.7114 75.5951 14.2356L76.1029 14.4977V18.7566H76.1193Z" fill="#042B26"/>
<path id="Vector_14" d="M76.1186 30.5178H74.2676V27.5857H76.1186V30.5178ZM76.1186 24.6372H74.2676V21.7051H76.1186V24.6372Z" fill="#042B26"/>
<path id="Vector_15" d="M72.6786 39.8709L71.5156 38.4294C72.3838 37.725 73.3011 37.1026 74.2839 36.5784V33.4497H76.1349V37.725L75.6271 37.9871C74.5788 38.4949 73.5796 39.1338 72.6786 39.8709Z" fill="#042B26"/>
<path id="Vector_16" d="M70.8289 41.6567L69.4365 40.4282C69.6003 40.248 69.7641 40.0678 69.9279 39.904L71.2711 41.1817C71.1073 41.3455 70.9599 41.4929 70.8289 41.6567ZM71.7134 40.723L70.4357 39.3962C70.6159 39.2324 70.7797 39.0686 70.9599 38.9048L72.1885 40.2808C72.0246 40.4282 71.8772 40.5756 71.7134 40.723Z" fill="#042B26"/>
<path id="Vector_17" d="M68.2568 45.5878H63.9814V43.7368H67.1101C67.6343 42.7704 68.2568 41.8367 68.9611 40.9685L70.4026 42.1315C69.6655 43.0325 69.0267 44.0317 68.5025 45.0636L68.2568 45.5878Z" fill="#042B26"/>
<path id="Vector_18" d="M59.82 45.5881H55.6429V43.7371H59.82V45.5881ZM51.4495 45.5881H47.2725V43.7371H51.4495V45.5881Z" fill="#042B26"/>
<path id="Vector_19" d="M43.0959 45.5881H38.9189V43.7371H43.0959V45.5881ZM34.7255 45.5881H30.5484V43.7371H34.7255V45.5881ZM26.3714 45.5881H22.1943V43.7371H26.3714V45.5881Z" fill="#042B26"/>
</g>
<g id="Group 83">
<g id="Group_2">
<path id="Vector_20" d="M32.7753 27.6293C32.1856 26.9741 31.3666 26.6465 30.3182 26.6465C29.2862 26.6465 28.4672 26.9741 27.8775 27.6293C27.2878 28.2845 26.9766 29.2838 26.9766 30.6433C26.9766 32.0029 27.2714 33.0185 27.8775 33.6737C28.4672 34.329 29.3026 34.6566 30.351 34.6566C31.3666 34.6566 32.1692 34.329 32.7753 33.6737C33.365 33.0185 33.6762 32.0029 33.6762 30.6433C33.6762 29.2838 33.365 28.2845 32.7753 27.6293ZM31.0226 32.609C30.8588 32.8547 30.613 32.9858 30.3182 32.9858C30.0233 32.9858 29.7776 32.8547 29.5975 32.609C29.3681 32.2814 29.2535 31.6262 29.2535 30.6433C29.2535 29.6605 29.3681 29.0053 29.5975 28.6613C29.7613 28.4156 30.007 28.2845 30.3182 28.2845C30.6294 28.2845 30.8751 28.4156 31.0389 28.6613C31.2519 29.0053 31.3665 29.6605 31.3665 30.6433C31.3665 31.6262 31.2355 32.2814 31.0226 32.609Z" fill="#40596B"/>
<path id="Vector_21" d="M23.4557 22.6333C23.4557 21.2737 23.1609 20.2581 22.5712 19.6193C21.9815 18.9641 21.1461 18.6365 20.0977 18.6365C19.0821 18.6365 18.2795 18.9641 17.6734 19.6193C17.0837 20.2745 16.7725 21.2737 16.7725 22.6333C16.7725 23.9929 17.0673 25.0085 17.6734 25.6474C18.2631 26.3026 19.0985 26.6302 20.1469 26.6302C21.1625 26.6302 21.9651 26.3026 22.5712 25.6474C23.1609 25.0085 23.4557 23.9929 23.4557 22.6333ZM20.8185 24.599C20.6383 24.8447 20.4089 24.9758 20.0977 24.9758C19.8029 24.9758 19.5572 24.8447 19.377 24.599C19.1476 24.255 19.033 23.5998 19.033 22.617C19.033 21.6341 19.1476 20.9789 19.377 20.6349C19.5408 20.3892 19.7865 20.2582 20.0977 20.2582C20.4089 20.2582 20.6547 20.3892 20.8185 20.6349C21.0314 20.9625 21.1461 21.6177 21.1461 22.6006C21.1461 23.5834 21.0314 24.2714 20.8185 24.599Z" fill="#40596B"/>
<path id="Vector_22" d="M28.2221 18.6365L20.1465 34.6239H22.3087L30.3024 18.6365H28.2221Z" fill="#40596B"/>
</g>
<g id="Group_3">
<path id="Vector_23" d="M42.5798 20.5002C41.6952 20.5002 40.8926 20.6477 40.221 20.9261C39.7132 21.1391 39.2381 21.4667 38.7959 21.909C38.37 22.3512 38.026 22.859 37.7803 23.416C37.4526 24.1695 37.2725 25.1196 37.2725 26.2334C37.2725 27.9862 37.7475 29.3457 38.7139 30.345C39.6804 31.3442 40.9745 31.8356 42.6125 31.8356C44.2178 31.8356 45.5119 31.3278 46.4783 30.3286C47.4448 29.3294 47.9198 27.937 47.9198 26.1679C47.9198 24.3824 47.4284 22.9901 46.462 21.9909C45.4791 21.008 44.1851 20.5002 42.5798 20.5002ZM44.7748 29.0018C44.2014 29.6406 43.4807 29.9518 42.5961 29.9518C41.7116 29.9518 40.9908 29.6242 40.4175 28.9854C39.8442 28.3465 39.5494 27.3965 39.5494 26.1679C39.5494 24.9066 39.8278 23.9565 40.3848 23.3341C40.9417 22.7116 41.6788 22.4004 42.5961 22.4004C43.5135 22.4004 44.2342 22.7116 44.7911 23.3341C45.3481 23.9565 45.6102 24.8902 45.6102 26.1515C45.6102 27.4128 45.3317 28.3629 44.7748 29.0018Z" fill="#F1543F"/>
<path id="Vector_24" d="M49.6562 31.6554H51.8676V27.0033H56.4378V25.1359H51.8676V22.5478H57.1749V20.6804H49.6562V31.6554Z" fill="#F1543F"/>
<path id="Vector_25" d="M66.5275 22.5478V20.6804H59.0088V31.6554H61.2202V27.0033H65.8067V25.1359H61.2202V22.5478H66.5275Z" fill="#F1543F"/>
</g>
</g>
</g>
</svg>
