<svg width="69" height="100" viewBox="0 0 69 100" fill="none" xmlns="http://www.w3.org/2000/svg">
<g id="Component 15">
<path id="Ellipse 16" d="M1.03455 50C1.03455 63.7203 4.81292 76.1194 10.8956 85.0744C16.9801 94.032 25.3335 99.5 34.4973 99.5C43.661 99.5 52.0144 94.032 58.0989 85.0744C64.1816 76.1194 67.96 63.7203 67.96 50C67.96 36.2797 64.1816 23.8806 58.0989 14.9256C52.0144 5.96796 43.661 0.5 34.4973 0.5C25.3335 0.5 16.9801 5.96796 10.8956 14.9256C4.81292 23.8806 1.03455 36.2797 1.03455 50Z" stroke="#042B26"/>
<path id="Arrow 2" d="M46.4262 48.9393C47.012 49.5251 47.012 50.4749 46.4262 51.0607L36.8802 60.6066C36.2945 61.1924 35.3447 61.1924 34.7589 60.6066C34.1731 60.0208 34.1731 59.0711 34.7589 58.4853L43.2442 50L34.7589 41.5147C34.1731 40.9289 34.1731 39.9792 34.7589 39.3934C35.3447 38.8076 36.2945 38.8076 36.8802 39.3934L46.4262 48.9393ZM23.6294 48.5L45.3655 48.5L45.3655 51.5L23.6294 51.5L23.6294 48.5Z" fill="#042B26"/>
</g>
</svg>
