<svg width="69" height="100" viewBox="0 0 69 100" fill="none" xmlns="http://www.w3.org/2000/svg">
<g id="Component 15">
<path id="Ellipse 16" d="M67.9777 50C67.9777 63.7203 64.1993 76.1194 58.1166 85.0744C52.0321 94.032 43.6787 99.5 34.5149 99.5C25.3512 99.5 16.9978 94.032 10.9133 85.0744C4.83061 76.1194 1.05225 63.7203 1.05225 50C1.05225 36.2797 4.83061 23.8806 10.9133 14.9256C16.9978 5.96796 25.3512 0.5 34.5149 0.5C43.6787 0.5 52.0321 5.96796 58.1166 14.9256C64.1993 23.8806 67.9777 36.2797 67.9777 50Z" stroke="#042B26"/>
<path id="Arrow 2" d="M22.586 48.9393C22.0002 49.5251 22.0002 50.4749 22.586 51.0607L32.132 60.6066C32.7178 61.1924 33.6675 61.1924 34.2533 60.6066C34.8391 60.0208 34.8391 59.0711 34.2533 58.4853L25.768 50L34.2533 41.5147C34.8391 40.9289 34.8391 39.9792 34.2533 39.3934C33.6675 38.8076 32.7177 38.8076 32.132 39.3934L22.586 48.9393ZM45.3828 48.5L23.6467 48.5L23.6467 51.5L45.3828 51.5L45.3828 48.5Z" fill="#042B26"/>
</g>
</svg>
